<svg width="60" height="63" viewBox="0 0 60 63" xmlns="http://www.w3.org/2000/svg"><g fill="none" fill-rule="evenodd"><path opacity=".1" d="M-10-8.439h80V69.61h-80z"/><path d="M28.8 62.207c15.464 0 28-12.23 28-27.317s-8.63-50.277-28-27.317C9.43 30.533.8 19.803.8 34.89s12.536 27.317 28 27.317z" fill="#E4D735" opacity=".2"/><path d="M18.047 8.784h34.065l7.226 37.068c-.865 3.87-3.274 5.804-7.226 5.804H18.047c-3.32-1.475-5.279-4.47-5.875-8.988h10.83c-1.873-14.867-3.524-26.162-4.955-33.884z" fill="#FFF"/><path d="M18.175 42.596c-1.42.068-3.48.068-6.175 0 1.113 13.798 12.892 9.05 11.895 2.4-.834-5.558-2.74-17.772-5.72-36.643m15.96 0h18.448c3.04 16.807 5.21 29.02 6.505 36.643.704 4.14-2.28 6.507-6.505 6.507-3.38 0-14.85.022-34.408.065" stroke="#878EA6" stroke-width="1.6" stroke-linecap="round" stroke-linejoin="round"/><text font-family="AkkuratStd-Regular, Akkurat Std" font-size="36.864" fill="#878EA6" transform="translate(.8 -9.598)"><tspan x="19.319" y="36.148">“</tspan></text><text font-family="AkkuratStd-Regular, Akkurat Std" font-size="36.864" fill="#878EA6" transform="translate(.8 -9.598)"><tspan x="40.521" y="70.281">”</tspan></text><path d="M27.787 18.826h13.68m-12.4 6.244H47.11m-16.337 6.66h11.52" stroke="#878EA6" stroke-width="1.6" stroke-linecap="round"/></g></svg>