<svg width="65" height="53" viewBox="0 0 65 53" xmlns="http://www.w3.org/2000/svg"><g fill="none" fill-rule="evenodd"><path d="M28.895 50.41c21.01-6.632 45.417-31.721 30.899-45.525-14.518-13.804-17.147 9.451-30.9 14.267C15.143 23.968 8.924 17.57 2.29 33.666c-6.636 16.097 10.03 21.977 26.605 16.745z" fill="#4A90E2" opacity=".2"/><path opacity=".1" d="M-7.17-15h80v80h-80z"/><path d="M32 13h8c.585 1.342.878 2.342.878 3 0 .658-.293 1.658-.878 3h-8v-6zm0 7h8c.585 1.342.878 2.342.878 3 0 .658-.293 1.658-.878 3h-8v-6z" fill="#FFF"/><path d="M19.696 21.457h5.857l-2.877-7.773-2.98 7.773zm2.25-9.217h1.585l5.837 15.164h-1.522l-1.813-4.715h-6.775l-1.793 4.715h-1.5l5.982-15.164zm10.194 6.648h4.878c.57 0 1.063-.068 1.48-.202a3.06 3.06 0 0 0 1.042-.552c.278-.234.487-.507.626-.818.138-.312.208-.644.208-.998 0-1.897-1.119-2.846-3.356-2.846H32.14v5.416zm-1.417-6.648h6.295c.625 0 1.226.06 1.803.18a4.32 4.32 0 0 1 1.522.617c.437.29.788.672 1.052 1.146.264.475.396 1.066.396 1.774a3.637 3.637 0 0 1-.719 2.177 3.42 3.42 0 0 1-.813.775 2.988 2.988 0 0 1-1.052.446c.959.17 1.723.57 2.293 1.242.57.673.854 1.505.854 2.496 0 .24-.02.513-.062.817a3.972 3.972 0 0 1-.792 1.88 3.225 3.225 0 0 1-.949.818c-.396.233-.882.424-1.459.573-.577.149-1.268.223-2.074.223h-6.295V12.24zm1.417 13.932h4.878c.528 0 1.028-.046 1.5-.138.473-.092.89-.258 1.251-.499.362-.24.647-.563.855-.966.209-.404.313-.91.313-1.519 0-.977-.337-1.71-1.011-2.198-.674-.488-1.644-.733-2.908-.733H32.14v6.053zm23.368-9.344a4.9 4.9 0 0 0-.615-1.561 4.238 4.238 0 0 0-1.043-1.158 4.614 4.614 0 0 0-1.355-.711 4.923 4.923 0 0 0-1.553-.245c-.986 0-1.834.192-2.543.574a5.066 5.066 0 0 0-1.74 1.518 6.596 6.596 0 0 0-1 2.135 9.274 9.274 0 0 0-.324 2.442c0 .821.108 1.632.323 2.432.216.8.55 1.515 1 2.145a5.066 5.066 0 0 0 1.741 1.518c.71.383 1.557.574 2.543.574.695 0 1.32-.128 1.876-.383a4.445 4.445 0 0 0 1.439-1.04c.403-.44.73-.952.98-1.54.25-.588.41-1.221.479-1.9h1.417c-.097.934-.312 1.776-.646 2.527a6.21 6.21 0 0 1-1.292 1.911 5.48 5.48 0 0 1-1.866 1.21c-.715.284-1.511.425-2.387.425-1.167 0-2.192-.216-3.074-.647a6.4 6.4 0 0 1-2.2-1.731 7.404 7.404 0 0 1-1.313-2.506 10.127 10.127 0 0 1-.437-2.995c0-1.048.146-2.046.437-2.994a7.522 7.522 0 0 1 1.314-2.517 6.344 6.344 0 0 1 2.199-1.742c.882-.432 1.907-.647 3.074-.647.71 0 1.4.106 2.075.318a5.964 5.964 0 0 1 1.834.945 5.486 5.486 0 0 1 1.376 1.54c.368.609.6 1.31.698 2.103h-1.417z" stroke="#878EA6" stroke-width=".5" fill="#878EA6"/><g transform="translate(33.866 20.34)"><ellipse fill="#F9F9FB" cx="8.444" cy="9.013" rx="8.242" ry="8.451"/><ellipse stroke="#878EA6" stroke-width="1.6" fill="#FFF" cx="9.879" cy="10.431" rx="7.065" ry="7.349"/><path d="M14.087 16.645l5.313 7.64" stroke="#878EA6" stroke-width="1.6" stroke-linecap="round"/></g></g></svg>