<svg width="62" height="69" viewBox="0 0 62 69" xmlns="http://www.w3.org/2000/svg"><g fill="none" fill-rule="evenodd"><path opacity=".1" d="M-9-6h80v80H-9z"/><path d="M61.198 53.887c2.999-8.992-7.182-15.308-10.902-23.306-4.45-9.565.068-18.604-11.748-21.057C16.852 5.018-9.588 24.072 3.511 49.936c13.1 25.864 51.317 23.051 57.687 3.951z" fill="#7846E6" opacity=".2"/><path d="M54.427 25.932v23.155a3 3 0 0 1-2.999 2.997H19a2.993 2.993 0 0 1-2.999-2.999V8A3 3 0 0 1 19 5h24.062" stroke="#878EA6" stroke-width="1.6" fill="#FFF" stroke-linecap="round" stroke-linejoin="round"/><path d="M22.028 18H39M22.028 40.25H39M22.028 29H33" stroke="#878EA6" stroke-width="2" stroke-linecap="round"/><path d="M38 29h11" stroke="#8189A9" stroke-width="2" stroke-linecap="round"/><g transform="translate(42 1)"><circle stroke="#878EA6" stroke-width="1.6" fill="#FFF" stroke-linecap="round" stroke-linejoin="round" cx="9" cy="9" r="9"/><text fill="#8189A9" font-family=".AppleSystemUIFont" font-size="14"><tspan x="7.5" y="16.288">!</tspan></text></g><path d="M44.211 24.364a1.375 1.375 0 1 1 2.439 1.272l-4.43 8.5a1.375 1.375 0 0 1-2.44-1.272l4.431-8.5zm-13 11a1.375 1.375 0 1 1 2.439 1.272l-4.43 8.5a1.375 1.375 0 0 1-2.44-1.272l4.431-8.5z" stroke="#FFF" stroke-width="1.25" fill="#8189A9" fill-rule="nonzero"/></g></svg>